<svg xmlns="http://www.w3.org/2000/svg" width="54" height="54" fill="none"><g clip-path="url(#a)"><path fill="#F2E9E3" d="M.334 11C.334 5.109 5.11.333 11.001.333h32C48.89.333 53.667 5.11 53.667 11v32c0 5.891-4.775 10.667-10.666 10.667H11C5.11 53.667.334 48.89.334 43V11Z"/><path fill="url(#b)" d="M20.334 11.889h18.667a4.444 4.444 0 0 1 4.444 4.444v21.334a4.444 4.444 0 0 1-4.444 4.444H20.334V11.89Z"/><path fill="url(#c)" d="M10.557 11.889h7.555a4.444 4.444 0 0 1 4.445 4.444v21.334a4.444 4.444 0 0 1-4.445 4.444h-7.555V11.89Z"/></g><defs><linearGradient id="b" x1="43.445" x2="20.334" y1="27" y2="27" gradientUnits="userSpaceOnUse"><stop stop-color="#FF1800"/><stop offset=".573" stop-color="#FC5800"/><stop offset=".88" stop-color="#FC5800" stop-opacity="0"/></linearGradient><linearGradient id="c" x1="22.557" x2="10.557" y1="27" y2="27" gradientUnits="userSpaceOnUse"><stop stop-color="#FF1800"/><stop offset=".573" stop-color="#FC5800"/><stop offset=".88" stop-color="#FC5800" stop-opacity="0"/></linearGradient><clipPath id="a"><path fill="#fff" d="M.334.333h53.333v53.333H.334z"/></clipPath></defs></svg>
